<mxfile host="app.diagrams.net" agent="Mozilla/5.0 (X11; Linux x86_64) AppleWebKit/537.36 (KHTML, like Gecko) Chrome/127.0.0.0 Safari/537.36" version="24.7.7">
  <diagram name="Page-1" id="HppqvAgdon4vVLg70sVJ">
    <mxGraphModel dx="2191" dy="759" grid="1" gridSize="10" guides="1" tooltips="1" connect="1" arrows="1" fold="1" page="1" pageScale="1" pageWidth="827" pageHeight="1169" math="0" shadow="0">
      <root>
        <mxCell id="0" />
        <mxCell id="1" parent="0" />
        <mxCell id="zQyfnbBSNigW3clxt8hY-2" value="" style="rounded=1;whiteSpace=wrap;html=1;fillColor=#ffe6cc;strokeColor=#d79b00;" vertex="1" parent="1">
          <mxGeometry x="-180" y="390" width="610" height="120" as="geometry" />
        </mxCell>
        <mxCell id="zQyfnbBSNigW3clxt8hY-3" value="&lt;b&gt;&lt;font style=&quot;font-size: 17px;&quot;&gt;parse_pdf&lt;/font&gt;&lt;/b&gt;" style="rounded=1;whiteSpace=wrap;html=1;fillColor=#fff2cc;strokeColor=#d6b656;" vertex="1" parent="1">
          <mxGeometry x="30" y="240" width="170" height="70" as="geometry" />
        </mxCell>
        <mxCell id="zQyfnbBSNigW3clxt8hY-5" value="" style="endArrow=classic;html=1;rounded=0;strokeWidth=3;" edge="1" parent="1">
          <mxGeometry width="50" height="50" relative="1" as="geometry">
            <mxPoint x="80" y="311" as="sourcePoint" />
            <mxPoint x="80" y="390" as="targetPoint" />
          </mxGeometry>
        </mxCell>
        <mxCell id="zQyfnbBSNigW3clxt8hY-6" value="" style="endArrow=classic;html=1;rounded=0;strokeWidth=3;" edge="1" parent="1">
          <mxGeometry width="50" height="50" relative="1" as="geometry">
            <mxPoint x="160" y="390" as="sourcePoint" />
            <mxPoint x="160" y="310" as="targetPoint" />
          </mxGeometry>
        </mxCell>
        <mxCell id="zQyfnbBSNigW3clxt8hY-7" value="show_image" style="rounded=1;whiteSpace=wrap;html=1;fillColor=#f9f7ed;strokeColor=#36393d;" vertex="1" parent="1">
          <mxGeometry x="-150" y="420" width="120" height="60" as="geometry" />
        </mxCell>
        <mxCell id="zQyfnbBSNigW3clxt8hY-8" value="download_images_&lt;div&gt;per_page&lt;/div&gt;" style="rounded=1;whiteSpace=wrap;html=1;fillColor=#f9f7ed;strokeColor=#36393d;" vertex="1" parent="1">
          <mxGeometry x="10" y="420" width="120" height="60" as="geometry" />
        </mxCell>
        <mxCell id="zQyfnbBSNigW3clxt8hY-9" value="extract_images_&lt;div&gt;per_page&lt;br&gt;&lt;/div&gt;" style="rounded=1;whiteSpace=wrap;html=1;fillColor=#f9f7ed;strokeColor=#36393d;" vertex="1" parent="1">
          <mxGeometry x="160" y="420" width="120" height="60" as="geometry" />
        </mxCell>
        <mxCell id="zQyfnbBSNigW3clxt8hY-10" value="&lt;div&gt;extract_text_tables_&lt;/div&gt;&lt;div&gt;images_per_page&lt;br&gt;&lt;/div&gt;" style="rounded=1;whiteSpace=wrap;html=1;fillColor=#f9f7ed;strokeColor=#36393d;" vertex="1" parent="1">
          <mxGeometry x="300" y="420" width="120" height="60" as="geometry" />
        </mxCell>
        <mxCell id="zQyfnbBSNigW3clxt8hY-12" value="" style="endArrow=classic;html=1;rounded=0;strokeWidth=3;" edge="1" parent="1">
          <mxGeometry width="50" height="50" relative="1" as="geometry">
            <mxPoint x="-90" y="279.5" as="sourcePoint" />
            <mxPoint x="20" y="279.5" as="targetPoint" />
          </mxGeometry>
        </mxCell>
        <mxCell id="zQyfnbBSNigW3clxt8hY-13" value="" style="endArrow=classic;html=1;rounded=0;strokeWidth=3;" edge="1" parent="1">
          <mxGeometry width="50" height="50" relative="1" as="geometry">
            <mxPoint x="245" y="274.5" as="sourcePoint" />
            <mxPoint x="355" y="275" as="targetPoint" />
          </mxGeometry>
        </mxCell>
        <mxCell id="zQyfnbBSNigW3clxt8hY-14" value="&lt;b&gt;&lt;font style=&quot;font-size: 17px;&quot;&gt;Construct List of Dictionaries&lt;/font&gt;&lt;/b&gt;&lt;b style=&quot;background-color: initial;&quot;&gt;&lt;font style=&quot;font-size: 17px;&quot;&gt;&amp;nbsp;&lt;/font&gt;&lt;/b&gt;" style="rounded=1;whiteSpace=wrap;html=1;fillColor=#fff2cc;strokeColor=#d6b656;" vertex="1" parent="1">
          <mxGeometry x="410" y="240" width="160" height="70" as="geometry" />
        </mxCell>
        <mxCell id="zQyfnbBSNigW3clxt8hY-16" value="" style="endArrow=classic;html=1;rounded=0;strokeWidth=3;" edge="1" parent="1">
          <mxGeometry width="50" height="50" relative="1" as="geometry">
            <mxPoint x="600" y="274.5" as="sourcePoint" />
            <mxPoint x="800" y="275" as="targetPoint" />
          </mxGeometry>
        </mxCell>
        <mxCell id="zQyfnbBSNigW3clxt8hY-17" value="&lt;span style=&quot;font-size: 17px;&quot;&gt;&lt;b&gt;Pickle&lt;/b&gt;&lt;/span&gt;&lt;div&gt;&lt;span style=&quot;font-size: 17px;&quot;&gt;&lt;b&gt;To Persist&lt;/b&gt;&lt;/span&gt;&lt;/div&gt;" style="rounded=1;whiteSpace=wrap;html=1;fillColor=#fff2cc;strokeColor=#d6b656;" vertex="1" parent="1">
          <mxGeometry x="820" y="240" width="170" height="70" as="geometry" />
        </mxCell>
        <mxCell id="zQyfnbBSNigW3clxt8hY-19" value="" style="shape=image;imageAspect=0;aspect=fixed;verticalLabelPosition=bottom;verticalAlign=top;image=data:image/png,iVBORw0KGgoAAAANSUhEUgAAAGoAAAB+CAYAAADMZoQaAAAABHNCSVQICAgIfAhkiAAAABl0RVh0U29mdHdhcmUAZ25vbWUtc2NyZWVuc2hvdO8Dvz4AAAAydEVYdENyZWF0aW9uIFRpbWUAV2VkbmVzZGF5IDE0IEF1Z3VzdCAyMDI0IDA2OjI1OjQxIEFNjV7OzAAAEW1JREFUeJztnX1wlMUdxz/73F0uQEBCAgaCJFBaIC3UAo1FdEpFKlOIpoovRzQyKmLF8mLtBAVGxsGiFqdv6mQQihB5MYiILxSGUaaRsVVLpWopEEUiBggJbyG5vNw9z/aPy13uubskl9yT53LHfWaeye0+++zzy33v2d1n97e7QkopSdDjUaJtQILwSAgVI1gjzUDTNCoqKjh58iQNDQ1G2NRjyMnJYciQIdE2w4PsIqdPn5YLFy6UgwYNkkBcHklJSXLbtm1d/YoMpUtC7dmzR/bv3z/qX6QZh9Vq7RFiCSk71+orKytj2rRpNDc3A2C325k8eTLDhg1DUfRVnqIoQXH+uN3ukPFWa8QlckQcPnyYsrIyX9hqtbJlyxZmzZoVPaM6o2p9fb3MzMz0/dqmTZsmjx49Kuvq6kIeLper3fxCXeN0OiP43RnDyy+/3OOerE79dNeuXUtlZSUAkyZNorS0FJvNZvBPp2cx0Gql2u3G7XbjcDiQUnL77bebbkenmudvvPGG7/OqVaviXiSAxzMycAwYAHiK6tmzZ7Nt2zbT7eiUUIcOHQIgPT2diRMndotBPQ2LEJRkZ0ddrE4JdfbsWQAGDhzYLcb0VHqCWJ0SSrY0EIUQ3WJMT8Yr1t1+YjkcDjZv3mzK/RNdSJ3AIgSv+ImlqiqFhYWmiJUQqpNES6yEUF0gGmIlhOoiZouVECoCzBQrIVSEmCVWQigDaEusTZs2GXaPhFAGEUqse++91zCxojue0E3I//wH7YMP4NIlRFYWyi9+Af37d/t9vWIJISg5e9YnFkBBQUFEeceVULKmBvU3v0F7/339iRUrsC5bhlJY2O02WIRgfVYWgKFixY9QtbW4HQ7k4cPB5xoacC9diqWuDsvDD3e7Kd0hVtzUUe6nngotkh/qs88i//1vU+zxinVPWprn3hHWWXEhlPzqK7TSUl2cZcECrKWliHHjWiM1DfX5502zy0ix4kIorbQU/Fw/FIcDy29/izJpEtYNG3QNCe2DD5DffmuabUaJFR9Cffhha0AILA891BpMT8fiP3QuJfKf/zTROmPEiguhZHm577PIzESMGKE7LyZP1qc/erTd/LpjvM0r1my/96w5c+ZQGlBkt0XsC+VyQX19aziEZ6sYOlQXlufPt5vlgJYvE6CmDZe2rmARgo3Z2T6x3G43BQUFYYkV+0LZbJCa2ho+dSooiQyIE/7pQzB69Gjf5921tZHZF0BXxYp9oQAlJ8f3WZ44ESSMPHBAFxYjR7ab35gxY3xifVJfz+Zz5wyy1ENXxIoLocT11+vC8pNP9OF//UufPje3wzyXL1/u+3x/RQXramowciJZZ8WKi54JZcoU1Gee8YW1999HuflmT6CuDs1PODF0KCI7u8M8HQ4Hb7/9Nlu3bqVR03igooJnT59mSt++DDDQ5XqIzUaKolCnaT6xAO644w5durgQSuTkIDIykKdPA6Dt3etpZNhsaPv2QVNTa9qf/jS8PIVg/fr12Gw2SkpKAChvaqLcL6/uwO12M2fOHKZPn06/fv188XFR9CGEp4fcS20tWouTv/buu7qkyk03hZ1tcnIyGzdu5K233mLSpEntTngwkoaGBp8PpZe4eKIAlJkzUf/6V19Y27ULJTcX7b33WhMNGIASUJ+FQ15eHnl5eVRXV1NeXo7T6eySjc3NzWia1ub5lStX8tFHH4U8FzdCiYkTEZmZyJZJDNru3ajjxkFjoy+NMmMGRFC/DBw4MCIv4cbGRlRVbfN8cXFxm+fio+gDT/E3fXpruLYWdfVqXRJl5kyTjTKO+BGKEEJcuOD7KLKyUH7yE5MtMo64EkpMmIDIzAx5TiksBJMaA91B7FoeisDWn5fkZH0PegwSX0LR0mAIjLv5Zn1/YAwSd0KJUaOCWnaWgLf8WCTuhFLXr4eAoQntiy+iZI1xxJdQtbWoa9YERWtbt0bBGGOJK6HUl17SNcm9yMOHkZ9/HgWLjCNuhJLHj6O+/HKb57XXXjPRGuOJG6HUZcugZTUZAOW663SNCvXNN3W96LFGXAilvfMO2t//3hrRuzeW559H8R/SuHgRbc8e840ziJgXSlZV4X7iCV2cZcECxJAhKAHN8lgu/mJbKClRFy8GP68iMXIklgcfBECZNg38PIq0/ftNdb40kpgWSl271jO9xovVivUPf/B4JgHYbFjy81vPaxra66+ba6RBxKxQ8sABnZ8EgGXhQsTVV+vilDvv1IW10lJoZ/CupxKTQsnTp3E/+KCulSdyc7E88khQWpGTg/jBD1qvPXEC7R//MMVOI4k9oZqacM+dizxzxhcl0tOxvvhim6O3QY2KMN2IexLRH4pvbERUVEBVFeLsWcT586iaBk4nsq4OAoauZXk58uBBXZz4+c89/ucXLkBaGmLAALBYfOct+fmoK1f6nkBt1y5YuRL69u3+/88goiOUy4X2+utYX30VcehQUCdq214FodE2b0bzXy7AYkEMGYIYMcIzYWDECMR3v4v873895xsb0d58E+WeeyL7P0zEdKHkwYO4H30UWV5Ot61Rpqoe1+YTJ8D/Rdg/ydatKA5HRM4uZmJqHaXt3o1r1izdNJloIT/7DNePf4y6YkVMdNia9nOSBw/ifuSRoP42OWwY8uqrYdgwZGYmondvktLSICkJkZKC+sorQZW/yM3FWlSEvHgRLl5E1taC9/O33yIrKpDHj+tcxULaVFODum4d6rp1iFGjUO6+G8tdd0FystH/fsSYI5Sm4V6yRC9SaipqURFaXp6u4lcUBaVXL0+vw8qVwSJNmIBtwwZISemw6JRVVXD8OPLYMbRPP0UeOID88suQ71HyyBHU5cvR/vxnlF/9CktBAfTuHcl/bSimFH3ahx+2VuQAaWnYXnsNLT9fJ5IPtxv34sVBg4Bi3DhsJSWQkhLWfcWVVyKuuQbF4cD63HPY3nsPJS+v3WtkdTXqU0/hmjzZ0zfYQzYDMkUoGfCCaX38ccSYMaETO524778fbft2XbQYOxbbpk0RN6kt992nj7DZQtoia2pwP/YYrttu6xF1qjmNiYBZe2LUqJDJxNGjKLNmBa28olx3HbbSUkOWyRHjxyN+9KPWCJcLy/LlWDdvRpkyJSi9/OQTXDNnor3zTsT3jgRzhAqY/OxeutTTmep0gqoiDh9GKS7GevvtiC+/1BuYl+dZgiDM4i4cAp8qbe1alOuvx1pSgm37dsSECfoLnE7c8+cHzQwxE1OEUqZPB7vdF5affYZ79mxs48dj+/73sebnY/njH/WNDSGwPPww1hdegKQkY+2ZORNx5ZW+sLZvH/Krrzy3zc3FtmMH1t//HvzmJ6FpuBcvRn79taG2hIspQonBg7E8/nj4F6SkYF2zxnNNd7ghW636BaykRF23rjUsBMpdd2HbvRsxfHhrfEODZ8g/Cpj2wmu5/36szzzTYREmb7gB2549+pkZ3WFPQYHuKde2b4eASdXiqquwrlkDvXq1pisr07dgTcLUngmloICkjz7C+vTTKPn5aBMnIn/4Q7SbbkJdtAj3G2+gFRcjhg3rfmPS0lD8BxWdTtS//CUomRg9GssDD+jitF27utu6IMzv6OrXD6WwEKWwkCb/hTxaMHOPAsv8+Z4nqaVTWN2wAWXOHETLEm5elDvv1IkY909UT0MMH47yy1+2RrhcuBcuRFZX69MNG6arK6XBi4SEw2UtFIBl8WJdHSQPHMA9fTpaSYlv6R7tb3/TdTv5txjN4rIXSlx1FZalS3Vx8swZ3E88QfPo0TSPGYN73jzd+a5M2I6Uy14oAMu992J58snQ/Y51dbpgUHFpEgmhWrA88AC20lKdI0wgIjMT69q1uqLSLGJjeNMkRG4utnffRSsrQ9u1C3nkCJw9C4MHo0yZgqWwMGp+Fu0KVVtby+effx60Y3V9fT379u3rMHObzYYlVHHSQmOIgT0hBHa/F9FISE9PZ+zYse3aEISioEyZQqgO2qgSaivRS5cuyYceekja7faob1gc6TFo0CC5evVqqaqqufuxhqChoaHNrXDr6urkjBkzfHYfO3ZMd21QHeV0Opk6dSrFxcU0xfA0FS9nzpzhscceY9asWe2umtLTCSr6nn76aT7++GMA7ECe1crQjtZYVRTsHcw6V5uacAe0oLxYevXCavCwt0tKDjqdvH/pEgA7duxg9erVFBUVGXofs9AJpWka61p6ka3AzuRkrgmj91qx2ejXxkIcXppra3G28YQmp6aSnJ4epsmdY8u5cxR8/TUSeO6553j00Udjcv9gnQrV1dVUVVUBMF5RwhKpp+MYMIDpV1wBwLlz5zgQsGxprKBTwn95s7Q42sJ1gl+xeirE4sCxQOw/MmFg8/vRxWqD4rIQKh5ICBUjGNeFtGkTDB7cGlZVOH0aysvhlVegZZmb5KIi7AsW6NPV1sLRo7Bliy8dAA4HzJ0b+n51dZCfH5OzB7uCgetCDwnuB0tNhTFj4Gc/Q9xyC1RWIgYPRgT656WlwfDhcOONsGwZ7N3riR84UO8J5E8P9A/vTowv+ubOhRtu8Bx33+15ovr2Rbn1Vl2yphde4GJmJheHDqV55kzYv98zzFBUFOwetnNna57eY+rUy+Zpgu4Qqr7eU5TV1sLhw7B7N4De7QqQjY3ICxeQ5897Vv9assQzY7B/f/je9/R5NjW15uk9AjqK453ubUzYbDB+PBC8kUkQjY2eegrgO9/pVrNiEePHo1au9DwBiuJpXPTr51nfwVvvtId3imjgLMAZMyBgDyjKysDEbfCijfFCBfiZ88038OKLyE8/7fha74tp4FSXPn08hz8RrD8eixgv1KJF4PXPPn/eMxEgHBTF0/IDqKjQn9u5E/70J33cZVZHGS/UmTPQspp/2Njt8OtfQ0aGp6763//0572NicuYqPlM2OfOJem228BiQRkypLVeWrcu/KfwMsI4oVwuz1+/ZW9C0nJeXHEFomX4AYBjxzy9Gzt3Budp4D6DsYpxQt1yi+eFtY1RXC8NS5fS+Lvf6eLsKSkkh/LuWbPGI17iCTNQqHArd5cLGbhAr80W2g3L2w+YINF7HiskhIoRLguhnH6dt0kGzwc2C51Q/psfnughC2FEigT2tbiMAWSHsWNoT0QnVFpaGiNbNhP+QtMoifFmsVtKnqis5OOWeU7Z2dmMHTs2ylZ1jaBW3+LFi5k/fz4AC5qbecntJqMjj6TmZqwdrG6iud1obfj1KVVVKB3s395ZVCk51NhIlfddDFi1ahUiVr2rAv2jNU2Ts2fPjrrPuJGHEEI++eSTZrmYt4mhvudCCF599VWKi4t1m9vHIlarlalTp7J3715WrFgRbXMiIuQLrxCCefPmMW/ePOrr633esyNHjkRKyciRI9mxY0eHmdvt9nanvITaz1ZRFJIN8IdISkoiIyMDa4yscNkRHf4Xffr0YUTAGFNSUhLDA4bWQ2G329v9oupDLF+gKAq9ojCjr6dzWbxHxQMJoWKEhFAxQkKoGCEhVIyQECpG6JRQ3u4XGScdtj0N/+81sKurU0KlpaUBnimkCYznjN8OPukBc5o7JVROTg4ANTU1MTsXtqdy6tQpDrbs4pOVlUVKwEqhnRLqVr8ZGUuWLMHl1zOdoOtIKSkqKsLdMqx0a8DMF2+isKmvr5eZmZm+Ht4bb7xRHjlypM3eYJfL1W5+oa5xOp2d65KOIUL1np84cUI6HA7fd9qnTx958uTJoGuFlJ1rGZSVlTFt2jSaW/zz7HY71157LVlZWSgByx0oihIU54+7jYHJeOlIDURVVV2DobKykv379/v6PIUQbNq0CYfDEXxxV34Ze/bskampqVEfZ4qnIzk5WW7cuLHN77xLQkkpZVVVlVy0aJHMyMiI+j8Zy0dqaqq87777ggYKA+l00ReIpml88803VFZWBi0Xl6Bt7HY7gwcPJjs7O6yiPmKhEpjD/wEmSGOvyLF1bwAAAABJRU5ErkJggg==;" vertex="1" parent="1">
          <mxGeometry x="-206" y="220" width="106" height="126" as="geometry" />
        </mxCell>
        <mxCell id="zQyfnbBSNigW3clxt8hY-20" value="&lt;b style=&quot;font-size: 14px;&quot;&gt;&lt;font style=&quot;font-size: 14px;&quot;&gt;Extracted Pagewise Data&lt;/font&gt;&lt;/b&gt;&lt;div style=&quot;font-size: 14px;&quot;&gt;&lt;b&gt;&lt;font style=&quot;font-size: 14px;&quot;&gt;&amp;amp;&lt;/font&gt;&lt;/b&gt;&lt;/div&gt;&lt;div style=&quot;font-size: 14px;&quot;&gt;&lt;b style=&quot;&quot;&gt;&lt;font style=&quot;font-size: 14px;&quot;&gt;Metadata&lt;/font&gt;&lt;/b&gt;&lt;/div&gt;" style="text;html=1;align=center;verticalAlign=middle;whiteSpace=wrap;rounded=0;" vertex="1" parent="1">
          <mxGeometry x="210" y="230" width="180" height="30" as="geometry" />
        </mxCell>
        <mxCell id="zQyfnbBSNigW3clxt8hY-21" value="&lt;span style=&quot;font-size: 14px;&quot;&gt;&lt;b&gt;List of Dictionaries for&amp;nbsp;&lt;/b&gt;&lt;/span&gt;&lt;div&gt;&lt;span style=&quot;font-size: 14px;&quot;&gt;&lt;b&gt;with each itm contains pagewise data&lt;/b&gt;&lt;/span&gt;&lt;/div&gt;&lt;div&gt;&lt;span style=&quot;font-size: 14px;&quot;&gt;&lt;b&gt;&amp;amp; metadata&lt;/b&gt;&lt;/span&gt;&lt;/div&gt;" style="text;html=1;align=center;verticalAlign=middle;whiteSpace=wrap;rounded=0;" vertex="1" parent="1">
          <mxGeometry x="580" y="220" width="240" height="30" as="geometry" />
        </mxCell>
        <mxCell id="zQyfnbBSNigW3clxt8hY-23" value="&lt;span style=&quot;font-size: 14px;&quot;&gt;&lt;b&gt;PDF Page Iterator&amp;nbsp;&lt;/b&gt;&lt;/span&gt;" style="text;html=1;align=center;verticalAlign=middle;whiteSpace=wrap;rounded=0;" vertex="1" parent="1">
          <mxGeometry x="-50" y="330" width="140" height="30" as="geometry" />
        </mxCell>
        <mxCell id="zQyfnbBSNigW3clxt8hY-25" value="&lt;span style=&quot;font-size: 14px;&quot;&gt;&lt;b&gt;Data &amp;amp; Metadata&lt;/b&gt;&lt;/span&gt;" style="text;html=1;align=center;verticalAlign=middle;whiteSpace=wrap;rounded=0;" vertex="1" parent="1">
          <mxGeometry x="180" y="330" width="140" height="30" as="geometry" />
        </mxCell>
      </root>
    </mxGraphModel>
  </diagram>
</mxfile>
